<svg version="1.1" xmlns="http://www.w3.org/2000/svg" xmlns:xlink="http://www.w3.org/1999/xlink" width="116px" height="50px" viewBox="0 0 116 50" xml:space="preserve">
<style type="text/css">.st0{fill:url(#eroz)}</style>
<linearGradient id="eroz" gradientUnits="userSpaceOnUse" x1="-244.8618" y1="414.1" x2="-243.8618" y2="414.1" gradientTransform="matrix(115.519 0 0 -50 28286.1914 20730)"><stop offset="0" style="stop-color:#FFC107"/><stop offset="1" style="stop-color:#FEAA0A"/></linearGradient><path class="st0" d="M115.5,35h-11.2v-0.8l9.1-13.4h-8.1v-1.2h9.9v0.7l-9.1,13.4h9.4V35z M99.7,33.3c-0.6,0.7-1.4,1.2-2.2,1.6
	c-0.8,0.4-1.7,0.5-2.6,0.5c-0.9,0-1.8-0.2-2.6-0.5c-0.8-0.4-1.6-0.9-2.2-1.6c-0.6-0.7-1.1-1.5-1.5-2.5c-0.4-1-0.6-2.1-0.6-3.4
	c0-1.3,0.2-2.4,0.6-3.4c0.4-1,0.9-1.9,1.5-2.5c0.6-0.7,1.4-1.2,2.2-1.6c0.8-0.4,1.7-0.5,2.6-0.5c0.9,0,1.8,0.2,2.6,0.5
	c0.8,0.4,1.6,0.9,2.2,1.6c0.6,0.7,1.1,1.5,1.5,2.5c0.4,1,0.6,2.2,0.6,3.4c0,1.3-0.2,2.4-0.6,3.4C100.8,31.8,100.3,32.6,99.7,33.3z
	 M99.9,24.6c-0.3-0.8-0.7-1.6-1.1-2.2c-0.5-0.6-1.1-1.1-1.7-1.4c-0.7-0.3-1.4-0.5-2.2-0.5s-1.5,0.2-2.1,0.5
	c-0.7,0.3-1.2,0.8-1.7,1.4c-0.5,0.6-0.9,1.3-1.1,2.2c-0.3,0.8-0.4,1.8-0.4,2.8c0,1,0.1,1.9,0.4,2.8c0.3,0.8,0.7,1.5,1.1,2.1
	c0.5,0.6,1.1,1.1,1.7,1.4c0.7,0.3,1.4,0.5,2.1,0.5s1.5-0.2,2.2-0.5c0.7-0.3,1.2-0.8,1.7-1.4c0.5-0.6,0.9-1.3,1.1-2.1
	c0.3-0.8,0.4-1.7,0.4-2.8C100.3,26.3,100.1,25.4,99.9,24.6z M85.8,20.6c-0.2,0-0.4,0-0.7,0c-0.7,0-1.4,0.3-2.2,0.9
	c-0.8,0.6-1.4,1.6-2,3.1V35h-1.4V19.6h1.2l0.1,2.8h0.1c0.5-1,1.1-1.7,1.9-2.3s1.6-0.9,2.5-0.9c0.3,0,0.6,0,0.8,0.1
	c0.2,0,0.5,0.1,0.7,0.3l-0.3,1.3C86.2,20.7,86,20.7,85.8,20.6z M63.1,13.9h11.6v1.3H64.6v8H73v1.3h-8.4v9.3H75V35H63.1V13.9z M48,28
	c-1.7,0-3-1.3-3-3s1.3-3,3-3s3,1.3,3,3S49.7,28,48,28z M18.4,16.5L35.5,25l-17.1,8.6V16.5z M19.9,31.2L32.2,25l-12.4-6.1V31.2z
	 M46.6,17C43.3,8.3,34.9,2,25,2C12.3,2,2,12.3,2,25c0,12.7,10.3,23,23,23c9.9,0,18.3-6.3,21.6-15c0.1,0,0.3,0,0.4,0
	c0.6,0,1.2-0.1,1.8-0.2C45.5,42.8,36.1,50,25,50C11.2,50,0,38.8,0,25S11.2,0,25,0c11.1,0,20.5,7.2,23.8,17.2
	C48.2,17.1,47.6,17,47,17C46.9,17,46.7,17,46.6,17z"/></svg>